# xmcd
#
# Track frame offsets:
#	150
#	16443
#	32523
#	42998
#	58808
#	74425
#	86283
#	100550
#	114645
#	130828
#
# Disc length: 1970 seconds
#
# Revision: 2
# Processed by: cddbd v1.4PL0 Copyright (c) Steve Scherf et al.
# Submitted via: dBpowerAMP V4.0
#
DISCID=7d07b00a
DTITLE=George Strait - Ten Strait Hits
DYEAR=1900
DGENRE=country
TTITLE0=Famous Last Words Of A Fool
TTITLE1=Baby Blue
TTITLE2=If You Ain't Lovin' (You Ain't Livin')
TTITLE3=Baby's Gotten Good At Goodbye
TTITLE4=What's Going On In Your World
TTITLE5=Ace In The Hole
TTITLE6=Overnight Success
TTITLE7=Love Without End, Amen
TTITLE8=Drinking Champagne
TTITLE9=I've Come To Expect It From You
EXTD=Ten Strait Hits\n\n 
EXTT0=
EXTT1=
EXTT2=
EXTT3=
EXTT4=
EXTT5=
EXTT6=
EXTT7=
EXTT8=
EXTT9=
PLAYORDER=
